<?xml version="1.0" encoding="utf-8"?>
<!-- Svg Vector Icons : http://www.onlinewebfonts.com/icon -->
<!DOCTYPE svg PUBLIC "-//W3C//DTD SVG 1.1//EN" "http://www.w3.org/Graphics/SVG/1.1/DTD/svg11.dtd">
<svg version="1.1" xmlns="http://www.w3.org/2000/svg" xmlns:xlink="http://www.w3.org/1999/xlink" x="0px" y="0px" viewBox="0 0 1000 1000" enable-background="new 0 0 1000 1000" xml:space="preserve">
<metadata> Svg Vector Icons : http://www.onlinewebfonts.com/icon </metadata>
<g><g transform="translate(0.000000,511.000000) scale(0.100000,-0.100000)"><path d="M5319.9,4966.5c-25.7-25.7-617.4-932-1313.9-2014.4C3311.4,1869.7,2500.2,607.3,2205.3,148.2c-328.5-510.5-538.2-854.8-538.2-884.5c0-83.1,21.8-108.8,160.3-199.8c75.2-49.5,136.5-93,136.5-98.9c0-7.9-193.9-312.6-429.4-678.7c-235.5-366.1-437.3-692.6-449.2-722.2c-15.8-41.6-13.9-67.3,7.9-106.9c25.7-45.5,1123.9-761.8,3132.3-2048c330.5-211.7,399.7-235.4,469-160.3c17.8,19.8,209.7,310.7,425.4,649c215.7,338.3,411.6,641.1,435.3,676.7l41.5,63.3l138.5-87.1c148.4-95,217.7-108.8,281-53.4c23.8,17.8,710.4,1076.4,1529.6,2348.8C8365.1,120.6,9180.4,1386.9,9356.5,1664c324.5,504.6,354.2,567.9,300.8,639.1c-51.4,65.3-4187,2706.9-4238.4,2706.9C5391.1,5010,5347.6,4990.2,5319.9,4966.5z M7393.6,3405.2c1034.9-664.9,1889.7-1216.9,1899.6-1224.8c13.8-13.9-1023-1638.4-2851.4-4475.9l-85.1-132.6l-144.5,95C5794.7-2058,2577.3,5.8,2549.6,15.7c-19.8,7.9-31.7,23.7-27.7,37.6c4,13.9,664.8,1050.7,1470.2,2303.2c1030.9,1602.8,1472.2,2273.6,1492,2265.7C5499.9,4618.2,6358.7,4068.1,7393.6,3405.2z M2397.3-241.6c35.6-29.7,3688.4-2380.4,3755.6-2416c41.5-21.7,37.6-27.7-114.8-263.2c-85.1-132.6-160.3-241.4-166.2-241.4c-13.8,0-3791.2,2429.9-3817,2453.6c-9.9,9.9,4,49.5,29.7,93c112.8,182.1,259.2,401.7,269.1,401.7C2361.7-213.8,2381.4-225.7,2397.3-241.6z M3770.5-2184.7c841-540.2,1535.5-989.4,1545.4-997.3c21.8-21.7-757.9-1230.8-789.5-1222.8c-59.4,13.9-3074.9,1966.8-3069,1986.6c9.9,27.7,771.7,1215,779.6,1215C2241-1203.2,2929.5-1644.5,3770.5-2184.7z"/><path d="M5598.9,3759.4c-59.4-45.5-2230-3441-2230-3490.5c0-23.7,19.8-67.3,45.5-95c23.8-27.7,633.2-427.4,1353.5-890.4c1442.5-928,1400.9-906.3,1495.9-777.6c100.9,132.6,2156.8,3346,2178.6,3401.4c15.8,45.5,13.8,67.3-7.9,108.8c-41.5,71.2-2681.2,1767-2750.4,1767C5654.3,3783.2,5616.7,3771.3,5598.9,3759.4z M6900.9,2663.2c637.2-407.6,1161.5-749.9,1167.5-757.9c15.8-27.7-1958.9-3078.9-1992.6-3076.9c-21.8,2-2287.4,1444.5-2329,1484.1c-5.9,4,928,1466.2,1891.7,2962.2c47.5,73.2,91,132.6,97,132.6C5741.3,3407.2,6265.7,3072.8,6900.9,2663.2z"/><path d="M446.2-3532.2c-57.4-11.9-124.7-97-124.7-158.3c0-25.7,21.8-69.3,49.5-95l47.5-49.5h724.2H1867l47.5,49.5c63.3,61.3,63.3,130.6,2,201.8l-47.5,55.4l-690.6,2C800.4-3524.3,470-3526.3,446.2-3532.2z"/><path d="M5703.7-4013c-87.1-87.1-61.3-215.7,51.4-257.2c73.2-27.7,2239.9-25.7,2321.1,2c108.8,37.6,136.5,162.3,51.4,245.4l-47.5,49.5H6910.8C5775-3973.4,5741.3-3975.4,5703.7-4013z"/><path d="M855.8-4434.5c-110.8-55.4-114.8-219.6-7.9-269.1c35.6-15.8,379.9-21.8,1193.2-21.8c1127.9,0,1145.7,0,1197.1,41.5c63.3,49.5,69.3,148.4,13.9,217.7l-37.6,47.5l-1155.6,4C1154.6-4410.7,895.4-4414.7,855.8-4434.5z"/></g></g>
</svg>