<?xml version="1.0" encoding="UTF-8" standalone="no"?>
<svg
   xmlns:dc="http://purl.org/dc/elements/1.1/"
   xmlns:cc="http://creativecommons.org/ns#"
   xmlns:rdf="http://www.w3.org/1999/02/22-rdf-syntax-ns#"
   xmlns:svg="http://www.w3.org/2000/svg"
   xmlns="http://www.w3.org/2000/svg"
   xmlns:sodipodi="http://sodipodi.sourceforge.net/DTD/sodipodi-0.dtd"
   xmlns:inkscape="http://www.inkscape.org/namespaces/inkscape"
   version="1.2"
   width="14.246572"
   height="25.230381"
   viewBox="0 0 2.288 4.052"
   id="svg2"
   inkscape:version="0.48.5 r10040"
   sodipodi:docname="Figure rythmique blanche pointée.svg">
  <metadata
     id="metadata48">
    <rdf:RDF>
      <cc:Work
         rdf:about="">
        <dc:format>image/svg+xml</dc:format>
        <dc:type
           rdf:resource="http://purl.org/dc/dcmitype/StillImage" />
        <dc:title />
      </cc:Work>
    </rdf:RDF>
  </metadata>
  <defs
     id="defs46" />
  <sodipodi:namedview
     pagecolor="#ffffff"
     bordercolor="#666666"
     borderopacity="1"
     objecttolerance="10"
     gridtolerance="10"
     guidetolerance="10"
     inkscape:pageopacity="0"
     inkscape:pageshadow="2"
     inkscape:window-width="1920"
     inkscape:window-height="1018"
     id="namedview44"
     showgrid="false"
     fit-margin-top="0"
     fit-margin-left="0"
     fit-margin-right="0"
     fit-margin-bottom="0"
     inkscape:zoom="2.8284271"
     inkscape:cx="107.11899"
     inkscape:cy="61.488472"
     inkscape:window-x="-8"
     inkscape:window-y="-8"
     inkscape:window-maximized="1"
     inkscape:current-layer="svg2" />
  <!-- Page: 1/1 -->
  <text
     transform="translate(-10.5358,-1.0000017)"
     font-size="2.1995"
     id="text4"
     style="font-size:2.19950008px;text-anchor:start;fill:currentColor;font-family:Century Schoolbook L">
    <tspan
       id="tspan6" />
  </text>
  <path
     transform="matrix(0.004,0,0,-0.004,0,3.4999983)"
     d="m 315,65 c 0,24 -21,41 -42,41 -4,0 -8,0 -12,-1 C 230,96 184,65 147,41 110,17 63,-12 43,-37 36,-45 32,-55 32,-65 c 0,-24 21,-41 42,-41 4,0 8,0 12,1 31,9 78,40 115,64 37,24 84,53 104,78 7,8 10,18 10,28 z m -51,72 c 47,0 83,-21 83,-72 0,-19 -4,-37 -10,-56 -12,-38 -32,-74 -65,-96 -54,-36 -113,-51 -188,-51 -47,0 -84,22 -84,73 0,19 5,37 11,56 12,38 31,74 64,96 54,36 114,50 189,50 z"
     id="path18"
     inkscape:connector-curvature="0"
     style="fill:currentColor" />
  <path
     transform="matrix(0.004,0,0,-0.004,1.84,3.4999983)"
     d="M 0,0 C 0,31 25,56 56,56 87,56 112,31 112,0 112,-31 87,-56 56,-56 25,-56 0,-31 0,0 z"
     id="path20"
     inkscape:connector-curvature="0"
     style="fill:currentColor" />
  <rect
     transform="translate(1.325,2.9999983)"
     x="-0.064999998"
     y="-3"
     width="0.13"
     height="3.2386"
     ry="0.039999999"
     id="rect22"
     style="fill:currentColor" />
</svg>
