<?xml version="1.0" encoding="UTF-8"?>
<svg xmlns="http://www.w3.org/2000/svg" xmlns:xlink="http://www.w3.org/1999/xlink" width="34px" height="21px" viewBox="0 0 33 21" version="1.1">
<g id="surface1">
<path style=" stroke:none;fill-rule:nonzero;fill:rgb(0%,0%,0%);fill-opacity:1;" d="M 29.945312 0 L 4.023438 0 L 0 4.066406 L 0 17.910156 C 0 19.613281 1.371094 21 3.054688 21 L 29.945312 21 C 31.628906 21 33 19.613281 33 17.910156 L 33 3.089844 C 33 1.386719 31.628906 0 29.945312 0 Z M 31.777344 17.910156 C 31.777344 18.933594 30.957031 19.765625 29.945312 19.765625 L 3.054688 19.765625 C 2.042969 19.765625 1.222656 18.933594 1.222656 17.910156 L 1.222656 4.578125 L 4.53125 1.234375 L 29.945312 1.234375 C 30.957031 1.234375 31.777344 2.066406 31.777344 3.089844 Z M 31.777344 17.910156 "/>
<path style=" stroke:none;fill-rule:nonzero;fill:rgb(0%,0%,0%);fill-opacity:1;" d="M 5.5 4.324219 L 6.722656 4.324219 L 6.722656 5.558594 L 5.5 5.558594 Z M 5.5 4.324219 "/>
<path style=" stroke:none;fill-rule:nonzero;fill:rgb(0%,0%,0%);fill-opacity:1;" d="M 11.609375 4.324219 L 12.832031 4.324219 L 12.832031 5.558594 L 11.609375 5.558594 Z M 11.609375 4.324219 "/>
<path style=" stroke:none;fill-rule:nonzero;fill:rgb(0%,0%,0%);fill-opacity:1;" d="M 14.054688 4.324219 L 15.277344 4.324219 L 15.277344 5.558594 L 14.054688 5.558594 Z M 14.054688 4.324219 "/>
<path style=" stroke:none;fill-rule:nonzero;fill:rgb(0%,0%,0%);fill-opacity:1;" d="M 21.390625 4.324219 L 22.609375 4.324219 L 22.609375 5.558594 L 21.390625 5.558594 Z M 21.390625 4.324219 "/>
<path style=" stroke:none;fill-rule:nonzero;fill:rgb(0%,0%,0%);fill-opacity:1;" d="M 23.832031 4.324219 L 25.054688 4.324219 L 25.054688 5.558594 L 23.832031 5.558594 Z M 23.832031 4.324219 "/>
<path style=" stroke:none;fill-rule:nonzero;fill:rgb(0%,0%,0%);fill-opacity:1;" d="M 5.5 8.03125 L 6.722656 8.03125 L 6.722656 9.265625 L 5.5 9.265625 Z M 5.5 8.03125 "/>
<path style=" stroke:none;fill-rule:nonzero;fill:rgb(0%,0%,0%);fill-opacity:1;" d="M 7.945312 8.03125 L 9.167969 8.03125 L 9.167969 9.265625 L 7.945312 9.265625 Z M 7.945312 8.03125 "/>
<path style=" stroke:none;fill-rule:nonzero;fill:rgb(0%,0%,0%);fill-opacity:1;" d="M 10.390625 8.03125 L 11.609375 8.03125 L 11.609375 9.265625 L 10.390625 9.265625 Z M 10.390625 8.03125 "/>
<path style=" stroke:none;fill-rule:nonzero;fill:rgb(0%,0%,0%);fill-opacity:1;" d="M 12.832031 8.03125 L 14.054688 8.03125 L 14.054688 9.265625 L 12.832031 9.265625 Z M 12.832031 8.03125 "/>
<path style=" stroke:none;fill-rule:nonzero;fill:rgb(0%,0%,0%);fill-opacity:1;" d="M 16.5 8.03125 L 17.722656 8.03125 L 17.722656 9.265625 L 16.5 9.265625 Z M 16.5 8.03125 "/>
<path style=" stroke:none;fill-rule:nonzero;fill:rgb(0%,0%,0%);fill-opacity:1;" d="M 18.945312 8.03125 L 20.167969 8.03125 L 20.167969 9.265625 L 18.945312 9.265625 Z M 18.945312 8.03125 "/>
<path style=" stroke:none;fill-rule:nonzero;fill:rgb(0%,0%,0%);fill-opacity:1;" d="M 27.5 8.03125 L 28.722656 8.03125 L 28.722656 9.265625 L 27.5 9.265625 Z M 27.5 8.03125 "/>
<path style=" stroke:none;fill-rule:nonzero;fill:rgb(0%,0%,0%);fill-opacity:1;" d="M 25.054688 11.734375 L 26.277344 11.734375 L 26.277344 12.96875 L 25.054688 12.96875 Z M 25.054688 11.734375 "/>
<path style=" stroke:none;fill-rule:nonzero;fill:rgb(0%,0%,0%);fill-opacity:1;" d="M 18.945312 11.734375 L 20.167969 11.734375 L 20.167969 12.96875 L 18.945312 12.96875 Z M 18.945312 11.734375 "/>
<path style=" stroke:none;fill-rule:nonzero;fill:rgb(0%,0%,0%);fill-opacity:1;" d="M 16.5 11.734375 L 17.722656 11.734375 L 17.722656 12.96875 L 16.5 12.96875 Z M 16.5 11.734375 "/>
<path style=" stroke:none;fill-rule:nonzero;fill:rgb(0%,0%,0%);fill-opacity:1;" d="M 9.167969 11.734375 L 10.390625 11.734375 L 10.390625 12.96875 L 9.167969 12.96875 Z M 9.167969 11.734375 "/>
<path style=" stroke:none;fill-rule:nonzero;fill:rgb(0%,0%,0%);fill-opacity:1;" d="M 6.722656 11.734375 L 7.945312 11.734375 L 7.945312 12.96875 L 6.722656 12.96875 Z M 6.722656 11.734375 "/>
<path style=" stroke:none;fill-rule:nonzero;fill:rgb(0%,0%,0%);fill-opacity:1;" d="M 5.5 15.441406 L 6.722656 15.441406 L 6.722656 16.675781 L 5.5 16.675781 Z M 5.5 15.441406 "/>
<path style=" stroke:none;fill-rule:nonzero;fill:rgb(0%,0%,0%);fill-opacity:1;" d="M 9.167969 15.441406 L 10.390625 15.441406 L 10.390625 16.675781 L 9.167969 16.675781 Z M 9.167969 15.441406 "/>
<path style=" stroke:none;fill-rule:nonzero;fill:rgb(0%,0%,0%);fill-opacity:1;" d="M 11.609375 15.441406 L 12.832031 15.441406 L 12.832031 16.675781 L 11.609375 16.675781 Z M 11.609375 15.441406 "/>
<path style=" stroke:none;fill-rule:nonzero;fill:rgb(0%,0%,0%);fill-opacity:1;" d="M 21.390625 15.441406 L 22.609375 15.441406 L 22.609375 16.675781 L 21.390625 16.675781 Z M 21.390625 15.441406 "/>
<path style=" stroke:none;fill-rule:nonzero;fill:rgb(0%,0%,0%);fill-opacity:1;" d="M 23.832031 15.441406 L 25.054688 15.441406 L 25.054688 16.675781 L 23.832031 16.675781 Z M 23.832031 15.441406 "/>
</g>
</svg>
