<?xml version="1.0" encoding="UTF-8"?>
<!--Generator: Apple Native CoreSVG 175-->
<!DOCTYPE svg
PUBLIC "-//W3C//DTD SVG 1.1//EN"
       "http://www.w3.org/Graphics/SVG/1.1/DTD/svg11.dtd">
<svg version="1.1" xmlns="http://www.w3.org/2000/svg" xmlns:xlink="http://www.w3.org/1999/xlink" width="3300" height="2200">
 <!--glyph: "uni1008CC.medium", point size: 100.0, font version: "17.3d3e1", template writer version: "65.1"-->
 <g id="Notes">
  <rect height="2200" id="artboard" style="fill:white;opacity:1" width="3300" x="0" y="0"/>
  <line style="fill:none;stroke:black;opacity:1;stroke-width:0.5;" x1="263" x2="3036" y1="292" y2="292"/>
  <text style="stroke:none;fill:black;font-family:sans-serif;font-size:13;font-weight:bold;" transform="matrix(1 0 0 1 263 322)">Weight/Scale Variations</text>
  <text style="stroke:none;fill:black;font-family:sans-serif;font-size:13;text-anchor:middle;" transform="matrix(1 0 0 1 559.711 322)">Ultralight</text>
  <text style="stroke:none;fill:black;font-family:sans-serif;font-size:13;text-anchor:middle;" transform="matrix(1 0 0 1 856.422 322)">Thin</text>
  <text style="stroke:none;fill:black;font-family:sans-serif;font-size:13;text-anchor:middle;" transform="matrix(1 0 0 1 1153.13 322)">Light</text>
  <text style="stroke:none;fill:black;font-family:sans-serif;font-size:13;text-anchor:middle;" transform="matrix(1 0 0 1 1449.84 322)">Regular</text>
  <text style="stroke:none;fill:black;font-family:sans-serif;font-size:13;text-anchor:middle;" transform="matrix(1 0 0 1 1746.56 322)">Medium</text>
  <text style="stroke:none;fill:black;font-family:sans-serif;font-size:13;text-anchor:middle;" transform="matrix(1 0 0 1 2043.27 322)">Semibold</text>
  <text style="stroke:none;fill:black;font-family:sans-serif;font-size:13;text-anchor:middle;" transform="matrix(1 0 0 1 2339.98 322)">Bold</text>
  <text style="stroke:none;fill:black;font-family:sans-serif;font-size:13;text-anchor:middle;" transform="matrix(1 0 0 1 2636.69 322)">Heavy</text>
  <text style="stroke:none;fill:black;font-family:sans-serif;font-size:13;text-anchor:middle;" transform="matrix(1 0 0 1 2933.4 322)">Black</text>
  <line style="fill:none;stroke:black;opacity:1;stroke-width:0.5;" x1="263" x2="3036" y1="1903" y2="1903"/>
  <g transform="matrix(1 0 0 1 263 1933)">
   <path d="M9.24805 0.830078Q10.8691 0.830078 12.2949 0.214844Q13.7207-0.400391 14.8096-1.49414Q15.8984-2.58789 16.5186-4.01367Q17.1387-5.43945 17.1387-7.05078Q17.1387-8.66211 16.5186-10.0879Q15.8984-11.5137 14.8047-12.6074Q13.7109-13.7012 12.2852-14.3164Q10.8594-14.9316 9.23828-14.9316Q7.62695-14.9316 6.20117-14.3164Q4.77539-13.7012 3.69141-12.6074Q2.60742-11.5137 1.9873-10.0879Q1.36719-8.66211 1.36719-7.05078Q1.36719-5.43945 1.9873-4.01367Q2.60742-2.58789 3.69629-1.49414Q4.78516-0.400391 6.21094 0.214844Q7.63672 0.830078 9.24805 0.830078ZM9.24805-0.654297Q7.91992-0.654297 6.7627-1.14746Q5.60547-1.64062 4.73145-2.51953Q3.85742-3.39844 3.36426-4.56055Q2.87109-5.72266 2.87109-7.05078Q2.87109-8.37891 3.35938-9.54102Q3.84766-10.7031 4.72168-11.582Q5.5957-12.4609 6.75293-12.9541Q7.91016-13.4473 9.23828-13.4473Q10.5762-13.4473 11.7334-12.9541Q12.8906-12.4609 13.7695-11.582Q14.6484-10.7031 15.1465-9.54102Q15.6445-8.37891 15.6445-7.05078Q15.6445-5.72266 15.1514-4.56055Q14.6582-3.39844 13.7842-2.51953Q12.9102-1.64062 11.748-1.14746Q10.5859-0.654297 9.24805-0.654297ZM5.6543-7.05078Q5.6543-6.72852 5.85938-6.52832Q6.06445-6.32812 6.40625-6.32812L8.51562-6.32812L8.51562-4.20898Q8.51562-3.88672 8.71094-3.67676Q8.90625-3.4668 9.23828-3.4668Q9.56055-3.4668 9.77051-3.67676Q9.98047-3.88672 9.98047-4.20898L9.98047-6.32812L12.0898-6.32812Q12.4219-6.32812 12.627-6.52832Q12.832-6.72852 12.832-7.05078Q12.832-7.38281 12.627-7.58789Q12.4219-7.79297 12.0898-7.79297L9.98047-7.79297L9.98047-9.90234Q9.98047-10.2344 9.77051-10.4443Q9.56055-10.6543 9.23828-10.6543Q8.90625-10.6543 8.71094-10.4443Q8.51562-10.2344 8.51562-9.90234L8.51562-7.79297L6.40625-7.79297Q6.06445-7.79297 5.85938-7.58789Q5.6543-7.38281 5.6543-7.05078Z"/>
  </g>
  <g transform="matrix(1 0 0 1 281.867 1933)">
   <path d="M11.709 2.91016Q13.75 2.91016 15.5518 2.12891Q17.3535 1.34766 18.7305-0.0292969Q20.1074-1.40625 20.8887-3.20801Q21.6699-5.00977 21.6699-7.05078Q21.6699-9.0918 20.8887-10.8936Q20.1074-12.6953 18.7305-14.0723Q17.3535-15.4492 15.5469-16.2305Q13.7402-17.0117 11.6992-17.0117Q9.6582-17.0117 7.85645-16.2305Q6.05469-15.4492 4.68262-14.0723Q3.31055-12.6953 2.5293-10.8936Q1.74805-9.0918 1.74805-7.05078Q1.74805-5.00977 2.5293-3.20801Q3.31055-1.40625 4.6875-0.0292969Q6.06445 1.34766 7.86621 2.12891Q9.66797 2.91016 11.709 2.91016ZM11.709 1.25Q9.98047 1.25 8.47656 0.605469Q6.97266-0.0390625 5.83496-1.17676Q4.69727-2.31445 4.05762-3.81836Q3.41797-5.32227 3.41797-7.05078Q3.41797-8.7793 4.05762-10.2832Q4.69727-11.7871 5.83008-12.9297Q6.96289-14.0723 8.4668-14.7119Q9.9707-15.3516 11.6992-15.3516Q13.4277-15.3516 14.9316-14.7119Q16.4355-14.0723 17.5781-12.9297Q18.7207-11.7871 19.3652-10.2832Q20.0098-8.7793 20.0098-7.05078Q20.0098-5.32227 19.3701-3.81836Q18.7305-2.31445 17.5928-1.17676Q16.4551-0.0390625 14.9463 0.605469Q13.4375 1.25 11.709 1.25ZM7.17773-7.05078Q7.17773-6.69922 7.41211-6.47461Q7.64648-6.25 8.01758-6.25L10.8887-6.25L10.8887-3.36914Q10.8887-2.99805 11.1133-2.76855Q11.3379-2.53906 11.6895-2.53906Q12.0605-2.53906 12.29-2.76855Q12.5195-2.99805 12.5195-3.36914L12.5195-6.25L15.4004-6.25Q15.7715-6.25 16.001-6.47461Q16.2305-6.69922 16.2305-7.05078Q16.2305-7.42188 16.001-7.65137Q15.7715-7.88086 15.4004-7.88086L12.5195-7.88086L12.5195-10.752Q12.5195-11.1328 12.29-11.3623Q12.0605-11.5918 11.6895-11.5918Q11.3379-11.5918 11.1133-11.3574Q10.8887-11.123 10.8887-10.752L10.8887-7.88086L8.01758-7.88086Q7.63672-7.88086 7.40723-7.65137Q7.17773-7.42188 7.17773-7.05078Z"/>
  </g>
  <g transform="matrix(1 0 0 1 305.646 1933)">
   <path d="M14.9707 5.66406Q17.0605 5.66406 18.96 5.01465Q20.8594 4.36523 22.4512 3.19336Q24.043 2.02148 25.2197 0.429688Q26.3965-1.16211 27.0459-3.06641Q27.6953-4.9707 27.6953-7.05078Q27.6953-9.14062 27.0459-11.04Q26.3965-12.9395 25.2197-14.5312Q24.043-16.123 22.4512-17.2998Q20.8594-18.4766 18.9551-19.126Q17.0508-19.7754 14.9609-19.7754Q12.8711-19.7754 10.9717-19.126Q9.07227-18.4766 7.48535-17.2998Q5.89844-16.123 4.72168-14.5312Q3.54492-12.9395 2.90039-11.04Q2.25586-9.14062 2.25586-7.05078Q2.25586-4.9707 2.90527-3.06641Q3.55469-1.16211 4.72656 0.429688Q5.89844 2.02148 7.49023 3.19336Q9.08203 4.36523 10.9814 5.01465Q12.8809 5.66406 14.9707 5.66406ZM14.9707 3.84766Q13.1641 3.84766 11.5283 3.2959Q9.89258 2.74414 8.53516 1.74805Q7.17773 0.751953 6.17676-0.610352Q5.17578-1.97266 4.62891-3.6084Q4.08203-5.24414 4.08203-7.05078Q4.08203-8.86719 4.62891-10.5029Q5.17578-12.1387 6.17188-13.501Q7.16797-14.8633 8.52539-15.8594Q9.88281-16.8555 11.5186-17.4023Q13.1543-17.9492 14.9609-17.9492Q16.7773-17.9492 18.4131-17.4023Q20.0488-16.8555 21.4111-15.8594Q22.7734-14.8633 23.7695-13.501Q24.7656-12.1387 25.3174-10.5029Q25.8691-8.86719 25.8691-7.05078Q25.8789-5.24414 25.332-3.6084Q24.7852-1.97266 23.7842-0.610352Q22.7832 0.751953 21.4209 1.74805Q20.0586 2.74414 18.4229 3.2959Q16.7871 3.84766 14.9707 3.84766ZM9.19922-7.05078Q9.19922-6.66992 9.45801-6.4209Q9.7168-6.17188 10.1172-6.17188L14.0625-6.17188L14.0625-2.2168Q14.0625-1.81641 14.3115-1.55762Q14.5605-1.29883 14.9512-1.29883Q15.3516-1.29883 15.6104-1.55273Q15.8691-1.80664 15.8691-2.2168L15.8691-6.17188L19.8242-6.17188Q20.2246-6.17188 20.4785-6.4209Q20.7324-6.66992 20.7324-7.05078Q20.7324-7.46094 20.4785-7.71484Q20.2246-7.96875 19.8242-7.96875L15.8691-7.96875L15.8691-11.9141Q15.8691-12.3242 15.6104-12.583Q15.3516-12.8418 14.9512-12.8418Q14.5605-12.8418 14.3115-12.583Q14.0625-12.3242 14.0625-11.9141L14.0625-7.96875L10.1172-7.96875Q9.70703-7.96875 9.45312-7.71484Q9.19922-7.46094 9.19922-7.05078Z"/>
  </g>
  <text style="stroke:none;fill:black;font-family:sans-serif;font-size:13;font-weight:bold;" transform="matrix(1 0 0 1 263 1953)">Design Variations</text>
  <text style="stroke:none;fill:black;font-family:sans-serif;font-size:13;" transform="matrix(1 0 0 1 263 1971)">Symbols are supported in up to nine weights and three scales.</text>
  <text style="stroke:none;fill:black;font-family:sans-serif;font-size:13;" transform="matrix(1 0 0 1 263 1989)">For optimal layout with text and other symbols, vertically align</text>
  <text style="stroke:none;fill:black;font-family:sans-serif;font-size:13;" transform="matrix(1 0 0 1 263 2007)">symbols with the adjacent text.</text>
  <line style="fill:none;stroke:#00AEEF;stroke-width:0.5;opacity:1.0;" x1="776" x2="776" y1="1919" y2="1933"/>
  <g transform="matrix(1 0 0 1 776 1933)">
   <path d="M3.31055 0.15625Q3.70117 0.15625 3.91602-0.00976562Q4.13086-0.175781 4.26758-0.585938L5.52734-4.0332L11.2891-4.0332L12.5488-0.585938Q12.6855-0.175781 12.9004-0.00976562Q13.1152 0.15625 13.4961 0.15625Q13.8867 0.15625 14.1162-0.0585938Q14.3457-0.273438 14.3457-0.644531Q14.3457-0.869141 14.2383-1.17188L9.6582-13.3691Q9.48242-13.8184 9.17969-14.043Q8.87695-14.2676 8.4082-14.2676Q7.5-14.2676 7.17773-13.3789L2.59766-1.16211Q2.49023-0.859375 2.49023-0.634766Q2.49023-0.263672 2.70996-0.0537109Q2.92969 0.15625 3.31055 0.15625ZM6.00586-5.51758L8.37891-12.0898L8.42773-12.0898L10.8008-5.51758Z"/>
  </g>
  <line style="fill:none;stroke:#00AEEF;stroke-width:0.5;opacity:1.0;" x1="793.197" x2="793.197" y1="1919" y2="1933"/>
  <text style="stroke:none;fill:black;font-family:sans-serif;font-size:13;font-weight:bold;" transform="matrix(1 0 0 1 776 1953)">Margins</text>
  <text style="stroke:none;fill:black;font-family:sans-serif;font-size:13;" transform="matrix(1 0 0 1 776 1971)">Leading and trailing margins on the left and right side of each symbol</text>
  <text style="stroke:none;fill:black;font-family:sans-serif;font-size:13;" transform="matrix(1 0 0 1 776 1989)">can be adjusted by modifying the x-location of the margin guidelines.</text>
  <text style="stroke:none;fill:black;font-family:sans-serif;font-size:13;" transform="matrix(1 0 0 1 776 2007)">Modifications are automatically applied proportionally to all</text>
  <text style="stroke:none;fill:black;font-family:sans-serif;font-size:13;" transform="matrix(1 0 0 1 776 2025)">scales and weights.</text>
  <g transform="matrix(1 0 0 1 1289 1933)">
   <path d="M2.8418 1.86523L4.54102 3.57422Q5.18555 4.22852 5.90332 4.17969Q6.62109 4.13086 7.31445 3.35938L18.0078-8.42773L17.041-9.4043L6.42578 2.27539Q6.16211 2.57812 5.89355 2.61719Q5.625 2.65625 5.27344 2.30469L4.10156 1.14258Q3.75 0.791016 3.79395 0.522461Q3.83789 0.253906 4.14062-0.0195312L15.6152-10.8203L14.6387-11.7871L3.04688-0.898438Q2.30469-0.214844 2.25098 0.498047Q2.19727 1.21094 2.8418 1.86523ZM9.25781-16.3281Q8.94531-16.0254 8.90625-15.6348Q8.86719-15.2441 9.04297-14.9512Q9.21875-14.6777 9.55566-14.541Q9.89258-14.4043 10.3809-14.5215Q11.4746-14.7754 12.5977-14.7314Q13.7207-14.6875 14.7949-13.9844L14.209-12.5293Q13.9551-11.9043 14.0674-11.4404Q14.1797-10.9766 14.5801-10.5664L16.875-8.25195Q17.2363-7.88086 17.5781-7.82227Q17.9199-7.76367 18.3398-7.8418L19.4043-8.03711L20.0684-7.36328L20.0293-6.80664Q20-6.43555 20.1221-6.12305Q20.2441-5.81055 20.6055-5.44922L21.3672-4.70703Q21.7285-4.3457 22.1533-4.33105Q22.5781-4.31641 22.9297-4.66797L25.8398-7.58789Q26.1914-7.93945 26.1816-8.35449Q26.1719-8.76953 25.8105-9.13086L25.0391-9.89258Q24.6875-10.2539 24.3799-10.3857Q24.0723-10.5176 23.7109-10.4883L23.1348-10.4395L22.4902-11.0742L22.7344-12.1973Q22.832-12.6172 22.6953-12.9834Q22.5586-13.3496 22.1191-13.7891L19.9219-15.9766Q18.6719-17.2168 17.2607-17.8369Q15.8496-18.457 14.4189-18.4814Q12.9883-18.5059 11.665-17.959Q10.3418-17.4121 9.25781-16.3281ZM10.752-15.957Q11.6602-16.6211 12.7002-16.9043Q13.7402-17.1875 14.8047-17.085Q15.8691-16.9824 16.8701-16.5137Q17.8711-16.0449 18.7012-15.2051L21.1328-12.793Q21.3086-12.6172 21.3525-12.4512Q21.3965-12.2852 21.3379-12.0312L21.0156-10.5469L22.5195-9.0625L23.5059-9.12109Q23.6914-9.13086 23.7891-9.09668Q23.8867-9.0625 24.0332-8.91602L24.6094-8.33984L22.168-5.89844L21.5918-6.47461Q21.4453-6.62109 21.4062-6.71875Q21.3672-6.81641 21.377-7.01172L21.4453-7.98828L19.9512-9.47266L18.4277-9.21875Q18.1836-9.16992 18.042-9.2041Q17.9004-9.23828 17.7148-9.41406L15.7129-11.416Q15.5176-11.5918 15.4932-11.7529Q15.4688-11.9141 15.5859-12.1875L16.4648-14.2773Q15.293-15.3711 13.8281-15.791Q12.3633-16.2109 10.8398-15.7617Q10.7227-15.7324 10.6885-15.8057Q10.6543-15.8789 10.752-15.957Z"/>
  </g>
  <text style="stroke:none;fill:black;font-family:sans-serif;font-size:13;font-weight:bold;" transform="matrix(1 0 0 1 1289 1953)">Exporting</text>
  <text style="stroke:none;fill:black;font-family:sans-serif;font-size:13;" transform="matrix(1 0 0 1 1289 1971)">Symbols should be outlined when exporting to ensure the</text>
  <text style="stroke:none;fill:black;font-family:sans-serif;font-size:13;" transform="matrix(1 0 0 1 1289 1989)">design is preserved when submitting to Xcode.</text>
  <text id="template-version" style="stroke:none;fill:black;font-family:sans-serif;font-size:13;text-anchor:end;" transform="matrix(1 0 0 1 3036 1933)">Template v.3.0</text>
  <text style="stroke:none;fill:black;font-family:sans-serif;font-size:13;text-anchor:end;" transform="matrix(1 0 0 1 3036 1951)">Requires Xcode 13 or greater</text>
  <text id="descriptive-name" style="stroke:none;fill:black;font-family:sans-serif;font-size:13;text-anchor:end;" transform="matrix(1 0 0 1 3036 1969)">Generated from gearshape.fill</text>
  <text style="stroke:none;fill:black;font-family:sans-serif;font-size:13;text-anchor:end;" transform="matrix(1 0 0 1 3036 1987)">Typeset at 100 points</text>
  <text style="stroke:none;fill:black;font-family:sans-serif;font-size:13;" transform="matrix(1 0 0 1 263 726)">Small</text>
  <text style="stroke:none;fill:black;font-family:sans-serif;font-size:13;" transform="matrix(1 0 0 1 263 1156)">Medium</text>
  <text style="stroke:none;fill:black;font-family:sans-serif;font-size:13;" transform="matrix(1 0 0 1 263 1586)">Large</text>
 </g>
 <g id="Guides">
  <g id="H-reference" style="fill:#27AAE1;stroke:none;" transform="matrix(1 0 0 1 339 696)">
   <path d="M0.993347 0L3.6377 0L29.3282-67.1326L30.0301-67.1326L30.0301-70.459L28.1227-70.459ZM11.6882-24.4797L46.9818-24.4797L46.2311-26.7288L12.4382-26.7288ZM55.1193 0L57.7637 0L30.6381-70.459L29.4327-70.459L29.4327-67.1326Z"/>
  </g>
  <line id="Baseline-S" style="fill:none;stroke:#27AAE1;opacity:1;stroke-width:0.5;" x1="263" x2="3036" y1="696" y2="696"/>
  <line id="Capline-S" style="fill:none;stroke:#27AAE1;opacity:1;stroke-width:0.5;" x1="263" x2="3036" y1="625.541" y2="625.541"/>
  <g id="H-reference" style="fill:#27AAE1;stroke:none;" transform="matrix(1 0 0 1 339 1126)">
   <path d="M0.993347 0L3.6377 0L29.3282-67.1326L30.0301-67.1326L30.0301-70.459L28.1227-70.459ZM11.6882-24.4797L46.9818-24.4797L46.2311-26.7288L12.4382-26.7288ZM55.1193 0L57.7637 0L30.6381-70.459L29.4327-70.459L29.4327-67.1326Z"/>
  </g>
  <line id="Baseline-M" style="fill:none;stroke:#27AAE1;opacity:1;stroke-width:0.5;" x1="263" x2="3036" y1="1126" y2="1126"/>
  <line id="Capline-M" style="fill:none;stroke:#27AAE1;opacity:1;stroke-width:0.5;" x1="263" x2="3036" y1="1055.54" y2="1055.54"/>
  <g id="H-reference" style="fill:#27AAE1;stroke:none;" transform="matrix(1 0 0 1 339 1556)">
   <path d="M0.993347 0L3.6377 0L29.3282-67.1326L30.0301-67.1326L30.0301-70.459L28.1227-70.459ZM11.6882-24.4797L46.9818-24.4797L46.2311-26.7288L12.4382-26.7288ZM55.1193 0L57.7637 0L30.6381-70.459L29.4327-70.459L29.4327-67.1326Z"/>
  </g>
  <line id="Baseline-L" style="fill:none;stroke:#27AAE1;opacity:1;stroke-width:0.5;" x1="263" x2="3036" y1="1556" y2="1556"/>
  <line id="Capline-L" style="fill:none;stroke:#27AAE1;opacity:1;stroke-width:0.5;" x1="263" x2="3036" y1="1485.54" y2="1485.54"/>
  <line id="left-margin-Ultralight-S" style="fill:none;stroke:#00AEEF;stroke-width:0.5;opacity:1.0;" x1="513.804" x2="513.804" y1="600.785" y2="720.121"/>
  <line id="right-margin-Ultralight-S" style="fill:none;stroke:#00AEEF;stroke-width:0.5;opacity:1.0;" x1="605.618" x2="605.618" y1="600.785" y2="720.121"/>
  <line id="left-margin-Regular-S" style="fill:none;stroke:#00AEEF;stroke-width:0.5;opacity:1.0;" x1="1402.85" x2="1402.85" y1="600.785" y2="720.121"/>
  <line id="right-margin-Regular-S" style="fill:none;stroke:#00AEEF;stroke-width:0.5;opacity:1.0;" x1="1496.84" x2="1496.84" y1="600.785" y2="720.121"/>
  <line id="left-margin-Black-S" style="fill:none;stroke:#00AEEF;stroke-width:0.5;opacity:1.0;" x1="2882.57" x2="2882.57" y1="600.785" y2="720.121"/>
  <line id="right-margin-Black-S" style="fill:none;stroke:#00AEEF;stroke-width:0.5;opacity:1.0;" x1="2984.23" x2="2984.23" y1="600.785" y2="720.121"/>
 </g>
 <g id="Symbols">
  <g id="Black-S" transform="matrix(1 0 0 1 2882.57 696)">
   <path d="M47.4121 8.69141L54.248 8.69141Q56.9824 8.69141 59.0088 7.10449Q61.0352 5.51758 61.6211 2.88086L63.2324-3.80859Q63.5742-3.90625 63.8672-4.05273Q64.1602-4.19922 64.4531-4.29688L70.2637-0.683594Q72.5586 0.683594 75.1221 0.415039Q77.6855 0.146484 79.5898-1.70898L84.4238-6.54297Q86.3281-8.44727 86.5723-11.084Q86.8164-13.7207 85.3516-15.9668L81.8359-21.7285Q81.9336-21.9727 82.0557-22.2412Q82.1777-22.5098 82.2754-22.8027L89.0137-24.4141Q91.6504-25 93.2373-27.0264Q94.8242-29.0527 94.8242-31.7871L94.8242-38.4766Q94.8242-41.2109 93.2373-43.2129Q91.6504-45.2148 89.0137-45.8496L82.373-47.4121Q82.2754-47.7051 82.1533-47.998Q82.0312-48.291 81.8848-48.5352L85.4492-54.4922Q86.9141-56.8359 86.6699-59.4238Q86.4258-62.0117 84.4238-63.8672L79.4922-68.75Q77.5879-70.459 75.2197-70.752Q72.8516-71.0449 70.5566-69.8242L64.4531-66.0645Q64.1602-66.2109 63.8672-66.333Q63.5742-66.4551 63.2812-66.6016L61.6211-73.3887Q61.0352-76.0254 59.0088-77.6123Q56.9824-79.1992 54.248-79.1992L47.4121-79.1992Q44.6777-79.1992 42.6514-77.6123Q40.625-76.0254 40.0391-73.3398L38.4277-66.6504Q38.0859-66.5527 37.7686-66.4062Q37.4512-66.2598 37.1582-66.1133L31.1035-69.8242Q26.2207-72.4121 22.1191-68.7012L17.2363-63.8672Q15.2832-62.0117 15.0146-59.4238Q14.7461-56.8359 16.2109-54.4922L19.7754-48.5352Q19.6289-48.291 19.5068-47.998Q19.3848-47.7051 19.2871-47.4121L12.6465-45.8496Q10.0098-45.2148 8.42285-43.2129Q6.83594-41.2109 6.83594-38.4766L6.83594-31.7871Q6.83594-29.0527 8.42285-27.0264Q10.0098-25 12.6465-24.4141L19.3848-22.8027Q19.4824-22.5098 19.6045-22.2412Q19.7266-21.9727 19.8242-21.7285L16.3086-15.9668Q14.8438-13.7207 15.0879-11.084Q15.332-8.44727 17.2363-6.54297L22.0703-1.70898Q23.9746 0.146484 26.5625 0.415039Q29.1504 0.683594 31.3965-0.683594L37.207-4.29688Q37.5-4.19922 37.793-4.05273Q38.0859-3.90625 38.4277-3.80859L40.0391 2.88086Q40.625 5.51758 42.6514 7.10449Q44.6777 8.69141 47.4121 8.69141ZM50.8301-22.4121Q47.3145-22.4121 44.4092-24.1455Q41.5039-25.8789 39.7705-28.8086Q38.0371-31.7383 38.0371-35.2539Q38.0371-38.7695 39.7705-41.6504Q41.5039-44.5312 44.4092-46.2646Q47.3145-47.998 50.8301-47.998Q54.3457-47.998 57.251-46.2646Q60.1562-44.5312 61.8896-41.6504Q63.623-38.7695 63.623-35.2539Q63.623-31.7383 61.8896-28.8086Q60.1562-25.8789 57.251-24.1455Q54.3457-22.4121 50.8301-22.4121Z"/>
  </g>
  <g id="Regular-S" transform="matrix(1 0 0 1 1402.85 696)">
   <path d="M43.5547 4.93164L50.4395 4.93164Q51.9043 4.93164 52.9297 4.10156Q53.9551 3.27148 54.2969 1.85547L56.2988-6.68945Q57.5195-7.08008 58.6426-7.54395Q59.7656-8.00781 60.791-8.49609L68.2617-3.90625Q69.4336-3.17383 70.752-3.2959Q72.0703-3.41797 73.0469-4.39453L77.8809-9.22852Q78.9062-10.2539 79.0283-11.5967Q79.1504-12.9395 78.3203-14.1602L73.7793-21.582Q74.3164-22.6074 74.7559-23.7061Q75.1953-24.8047 75.5371-25.8789L84.1797-27.9297Q85.5957-28.2227 86.377-29.248Q87.1582-30.2734 87.1582-31.7871L87.1582-38.5254Q87.1582-39.9414 86.377-40.9668Q85.5957-41.9922 84.1797-42.2852L75.6348-44.3848Q75.2441-45.6055 74.7559-46.7285Q74.2676-47.8516 73.877-48.7305L78.418-56.2988Q79.1992-57.5195 79.1016-58.8135Q79.0039-60.1074 77.9785-61.1328L73.0469-65.9668Q72.0215-66.8945 70.8252-67.041Q69.6289-67.1875 68.4082-66.5527L60.791-61.8652Q59.8145-62.3535 58.6914-62.8174Q57.5684-63.2812 56.2988-63.6719L54.2969-72.3633Q53.9551-73.7793 52.9297-74.6094Q51.9043-75.4395 50.4395-75.4395L43.5547-75.4395Q42.0898-75.4395 41.0645-74.6094Q40.0391-73.7793 39.7461-72.3633L37.6953-63.7695Q36.5234-63.3789 35.376-62.915Q34.2285-62.4512 33.2031-61.9141L25.6348-66.5527Q23.0957-67.9199 20.9473-65.9668L16.0156-61.1328Q14.9902-60.1074 14.8926-58.8135Q14.7949-57.5195 15.5762-56.2988L20.1172-48.7305Q19.7266-47.8516 19.2627-46.7285Q18.7988-45.6055 18.4082-44.3848L9.86328-42.2852Q8.44727-41.9922 7.6416-40.9668Q6.83594-39.9414 6.83594-38.5254L6.83594-31.7871Q6.83594-30.2734 7.6416-29.248Q8.44727-28.2227 9.86328-27.9297L18.5059-25.8789Q18.7988-24.8047 19.2627-23.7061Q19.7266-22.6074 20.2148-21.582L15.6738-14.1602Q14.8438-12.9395 14.9902-11.5967Q15.1367-10.2539 16.1133-9.22852L20.9473-4.39453Q21.9238-3.41797 23.2422-3.2959Q24.5605-3.17383 25.7812-3.90625L33.252-8.49609Q34.2285-8.00781 35.376-7.54395Q36.5234-7.08008 37.6953-6.68945L39.7461 1.85547Q40.0391 3.27148 41.0645 4.10156Q42.0898 4.93164 43.5547 4.93164ZM47.0215-21.8262Q43.3105-21.8262 40.2588-23.6572Q37.207-25.4883 35.4004-28.54Q33.5938-31.5918 33.5938-35.3027Q33.5938-38.9648 35.4004-41.9922Q37.207-45.0195 40.2588-46.8506Q43.3105-48.6816 47.0215-48.6816Q50.6836-48.6816 53.7354-46.8506Q56.7871-45.0195 58.5938-41.9922Q60.4004-38.9648 60.4004-35.3027Q60.4004-31.5918 58.5938-28.54Q56.7871-25.4883 53.7354-23.6572Q50.6836-21.8262 47.0215-21.8262Z"/>
  </g>
  <g id="Ultralight-S" transform="matrix(1 0 0 1 513.804 696)">
   <path d="M42.0563 3.84216L49.7581 3.84216Q51.3596 3.84216 52.4303 2.96631Q53.5011 2.09045 53.8879 0.357056L55.7083-7.41577Q56.4751-7.71561 57.235-7.99789Q57.9948-8.28018 58.7479-8.58688L65.5823-4.26941Q67.0265-3.35541 68.3907-3.47748Q69.7548-3.59955 70.9129-4.75769L76.2917-10.1364Q77.4986-11.3434 77.6432-12.709Q77.7878-14.0747 76.8219-15.5678L72.5075-22.3083Q72.818-23.1071 73.0984-23.8651Q73.3788-24.6231 73.6755-25.425L81.5002-27.2484Q83.2344-27.6321 84.1064-28.6804Q84.9785-29.7287 84.9785-31.3782L84.9785-39.0251Q84.9785-40.6677 84.1064-41.716Q83.2344-42.7643 81.5002-43.148L73.6824-44.9753Q73.3826-45.787 73.0984-46.5469Q72.8142-47.3068 72.5143-48.0949L76.8288-54.8454Q77.7916-56.3385 77.6485-57.7236Q77.5055-59.1087 76.2985-60.2699L70.9129-65.6487Q69.751-66.8037 68.3956-66.9273Q67.0403-67.0509 65.593-66.1438L58.7479-61.8195Q57.9979-62.1262 57.2155-62.4084Q56.4331-62.6907 55.7083-62.9906L53.8879-70.7741Q53.5011-72.5075 52.4303-73.3829Q51.3596-74.2584 49.7581-74.2584L42.0563-74.2584Q40.4099-74.2584 39.3616-73.3829Q38.3133-72.5075 37.9295-70.7741L36.1061-62.9974Q35.3424-62.6976 34.581-62.4153Q33.8196-62.133 33.0215-61.8233L26.1795-66.1438Q23.2323-68.0107 20.8565-65.6487L15.4709-60.2699Q14.2639-59.1087 14.1209-57.7236Q13.9778-56.3385 14.9406-54.8454L19.2543-48.0949Q18.9545-47.3068 18.6722-46.5469Q18.3899-45.787 18.0901-44.9753L10.3172-43.148Q8.58383-42.7643 7.70988-41.716Q6.83594-40.6677 6.83594-39.0251L6.83594-31.3782Q6.83594-29.7287 7.70988-28.6804Q8.58383-27.6321 10.3172-27.2484L18.0969-25.425Q18.3899-24.6231 18.6722-23.8651Q18.9545-23.1071 19.2612-22.3083L14.9475-15.5678Q13.9809-14.0747 14.1273-12.709Q14.2738-11.3434 15.4778-10.1364L20.8565-4.75769Q22.0146-3.59955 23.3784-3.47748Q24.7421-3.35541 26.1902-4.26941L33.0246-8.58688Q33.8196-8.28018 34.581-7.99789Q35.3424-7.71561 36.1061-7.41577L37.9295 0.357056Q38.3133 2.09045 39.3616 2.96631Q40.4099 3.84216 42.0563 3.84216ZM45.932-21.2814Q42.1295-21.2814 38.9416-23.1804Q35.7536-25.0793 33.8562-28.2448Q31.9588-31.4102 31.9588-35.257Q31.9588-39.0556 33.8791-42.1967Q35.7994-45.3377 38.9645-47.2366Q42.1295-49.1356 45.932-49.1356Q49.7757-49.1356 52.9408-47.2366Q56.1058-45.3377 58.0032-42.1967Q59.9007-39.0556 59.9007-35.257Q59.9007-31.4102 58.0032-28.2448Q56.1058-25.0793 52.9408-23.1804Q49.7757-21.2814 45.932-21.2814Z"/>
  </g>
 </g>
</svg>
