<?xml version="1.0" encoding="utf-8"?>
<svg viewBox="1067.772 850.989 129.443 100.293" width="129.443" height="100.293" xmlns="http://www.w3.org/2000/svg">
  <path d="M80.6152 14.9902C82.1289 14.9902 83.3984 13.8184 83.3984 12.3047L83.3984-82.6172C83.3984-84.1309 82.1289-85.3027 80.6152-85.3027C79.1504-85.3027 77.832-84.1309 77.832-82.6172L77.832 12.3047C77.832 13.8184 79.1504 14.9902 80.6152 14.9902ZM24.707-7.22656L61.9141-30.127C66.0645-32.666 66.2109-37.5977 61.9141-40.2344L24.707-63.0859C20.459-65.6738 15.918-64.0137 15.918-58.4961L15.918-11.8164C15.918-6.25 20.5078-4.6875 24.707-7.22656ZM136.523-7.22656C140.723-4.6875 145.361-6.25 145.361-11.8164L145.361-58.4961C145.361-64.0137 140.771-65.6738 136.523-63.0859L99.3164-40.2344C95.0684-37.5977 95.2148-32.666 99.3164-30.127Z" transform="matrix(1, 0, 0, 1, 1051.853504, 936.292114)"/>
</svg>